<?xml version="1.0" encoding="utf-8"?>
<!-- Generator: Adobe Illustrator 27.0.0, SVG Export Plug-In . SVG Version: 6.00 Build 0)  -->
<svg version="1.1" id="圖層_1" xmlns="http://www.w3.org/2000/svg" xmlns:xlink="http://www.w3.org/1999/xlink" x="0px" y="0px"
	 viewBox="0 0 1133.9 992.1" style="enable-background:new 0 0 1133.9 992.1;" xml:space="preserve">
<style type="text/css">
	.st0{fill:#25EAEF;}
	.st1{fill:#FFFFFF;}
	.st2{fill:#D0F9FC;}
	.st3{fill:#8EA4E8;}
	.st4{clip-path:url(#SVGID_00000034070225677472252960000008459361259047029679_);fill:#FFFFFF;}
	.st5{clip-path:url(#SVGID_00000111153323141903475670000017545019357449766551_);fill:#FFFFFF;}
	.st6{clip-path:url(#SVGID_00000001624322106150395260000013986568032219309501_);fill:#FFFFFF;}
	.st7{clip-path:url(#SVGID_00000011740861575832290320000001523244067818909588_);fill:#FFFFFF;}
	.st8{clip-path:url(#SVGID_00000103947800478708427400000011455264875047611528_);fill:#FFFFFF;}
	.st9{clip-path:url(#SVGID_00000143619083975878560700000011185197693044661428_);fill:#FFFFFF;}
	.st10{clip-path:url(#SVGID_00000093892972562565220800000013347034261928702338_);fill:#FFFFFF;}
	.st11{clip-path:url(#SVGID_00000144329674810903133710000000065151139860471453_);fill:#FFFFFF;}
	.st12{clip-path:url(#SVGID_00000031192310628462792170000003330957214460697262_);fill:#FFFFFF;}
	.st13{clip-path:url(#SVGID_00000093876715318998474880000013073477908851380097_);fill:#FFFFFF;}
	.st14{clip-path:url(#SVGID_00000011722846242883966390000017810076638539553170_);fill:#FFFFFF;}
	.st15{fill:#7E44FC;}
	.st16{fill:#FF6699;}
	.st17{fill:#EECAEF;}
	.st18{fill:#CCEFBF;}
	.st19{fill:#FFCC33;}
	.st20{fill:#FFFF99;}
	.st21{fill:#4EE56E;}
	.st22{fill:#9978F4;}
</style>
<rect y="0" class="st0" width="1133.9" height="992.1"/>
<polygon class="st1" points="294.3,44.7 87.3,44.7 86.2,44.7 48.8,44.7 48.8,202 87.3,202 87.3,83.2 294.3,83.2 "/>
<polygon class="st1" points="287.8,580.7 125.5,580.7 125.5,580.3 62,580.3 62,836 125.5,836 125.5,644.2 287.8,644.2 "/>
<path class="st2" d="M1088.7,861.3H54.1v-814c83.8,0,167.6,0,251.4,0c55.7,20.1,104.2,30.2,139.9,35.7
	c49.8,7.7,153.6,22.7,276.8-11.2c32.7-9,59-19.3,77.1-27.1c96.5,0.9,193,1.7,289.4,2.6C1088.7,318.6,1088.7,590,1088.7,861.3z"/>
<path class="st3" d="M940.3,177.4c-33.3,16.4-88.2,49.6-131.1,112c-21.1,30.6-73.2,106.4-54.9,200.8c9.6,49.6,34.8,84.9,51.1,104
	c29.4-6.6,77.3-21.3,124.8-57.4c26.8-20.3,117.4-89.2,113.3-189.2c-2.6-63.1-41.7-111.3-51-122.8C974.1,202,954.6,186.9,940.3,177.4
	z"/>
<g>
	<g>
		<defs>
			<path id="SVGID_1_" d="M95.9,668.1c-3.2,0-5.5,0.2-7.7,0c-4.4-0.5-5.8,1.2-5.6,5.6c0.3,10,0.2,19.9,0,29.9c-0.1,3.4,1,5,4.5,4.8
				c1.8-0.1,3.8,0.4,5.4-0.1c1.4-0.5,3.2-2.2,3.3-3.3C96,692.9,95.9,681,95.9,668.1z"/>
		</defs>
		<clipPath id="SVGID_00000139985212466356154990000016421774002105522363_">
			<use xlink:href="#SVGID_1_"  style="overflow:visible;"/>
		</clipPath>
		<path style="clip-path:url(#SVGID_00000139985212466356154990000016421774002105522363_);fill:#FFFFFF;" d="M-133.7,1008
			c0-341.3,0-682.7,0-1024c512,0,1024,0,1536,0c0,341.3,0,682.5,0,1024C890.3,1008,378.3,1008-133.7,1008z"/>
	</g>
	<g>
		<defs>
			<path id="SVGID_00000160192157790415483090000005153784866225973929_" d="M95.9,668.1c-3.2,0-5.5,0.2-7.7,0
				c-4.4-0.5-5.8,1.2-5.6,5.6c0.3,10,0.2,19.9,0,29.9c-0.1,3.4,1,5,4.5,4.8c1.8-0.1,3.8,0.4,5.4-0.1c1.4-0.5,3.2-2.2,3.3-3.3
				C96,692.9,95.9,681,95.9,668.1z"/>
		</defs>
		<clipPath id="SVGID_00000059307891419704446420000009661727058376628133_">
			<use xlink:href="#SVGID_00000160192157790415483090000005153784866225973929_"  style="overflow:visible;"/>
		</clipPath>
		<path style="clip-path:url(#SVGID_00000059307891419704446420000009661727058376628133_);fill:#FFFFFF;" d="M1088.5,570
			c0-20.1,0-38.8,0-57.4c0.1-152.6,0.1-305.2,0.2-457.9c0-8.9,0-8.9-8.8-8.9c-93.5,0-187.1,0.1-280.6,0c-6,0-11.4,1.3-16.8,3.7
			c-22,9.8-45,16.4-68.9,19.6c-35.2,4.8-70.7,6.2-106.2,6.6c-55.9,0.6-111.6-1.2-167.2-7.6c-34.1-3.9-67.9-9.7-101.3-17.6
			c-10-2.3-20.1-6.2-30.1-6.3c-84.9-0.5-169.7-0.3-254.6-0.3c-6.2,0-7.3,1.2-7.4,7.3c0,19.5,0,39,0,58.5c0,226.4,0,452.7,0,679.1
			c0,21.7,0,43.4,0,65c0,5.8,1.2,7.1,7,7.2c3,0,6,0,9,0c295.3,0.1,590.5,0.3,885.8,0.4c43.7,0,87.4-0.1,131-0.1
			c8.4,0,8.8-0.5,8.8-8.6c0-46.7,0-93.4,0-140.1c0-1.3-0.2-2.6-0.3-3.8c-7.1-0.4-13.8-1-20.6-1c-25.2-0.1-50.3,0-75.5-0.1
			c-4.4,0-6.2,1.2-6.2,6c0.1,39,0,78.1,0.1,117.1c0,4.8-1.5,6-6,6c-48.3-0.1-96.7-0.1-145,0c-4.3,0-5.9-1-5.8-5.5
			c0.3-8.3,0.1-16.6,0.1-25h-6c0,10.2,0,20.2,0,30c-0.7,0.2-0.9,0.5-1.2,0.5c-32,0.1-64,0.1-96,0.1c-1.1,0-2.5-0.7-3.2-1.5
			c-3.6-4.4-7-8.9-10.4-13.4c-3.6-4.7-5.3-10.1-4.1-15.9c2.5-12.5-1.4-22.9-10.3-31.7c-5.1-5-8.4-11.1-8.9-18.5
			c-0.3-4.5-0.6-9-1-13.5c-0.9-9.3-7.3-16.5-16.6-19.1c-7.8-2.1-17.2,1.5-22.4,8.7c-4.7,6.5-6.6,13.7-6.1,21.6
			c0.5,6.2-1.2,11.9-5.7,16c-9.5,8.9-20.7,15.2-33.9,16.2c-10.9,0.8-20.7,3.8-30.1,9.1c-5.6,3.2-11.7,5.4-17.6,7.9
			c-8.1,3.3-16.4,6.2-24.3,9.8c-8.8,4.1-17.5,8.7-26,13.5c-4,2.2-7.4,5.5-11.3,8c-1.8,1.2-3.9,2.6-5.8,2.6
			c-139.2,0.1-278.4,0.1-417.6,0.2c-4.5,0-5.6-1.6-5.6-5.8c0.1-38.4,0.1-76.7,0.1-115.1c0-26.5,0-53.3,0-79.8
			c0.6,0.2,1.2,0.4,1.8,0.5c1.2-2.1,4-5.5,3.4-6.1c-4.1-5-0.2-9,1-13.4c0.7-2.4,1.5-4.5,5.1-4.1c2.6,0.3,4.9-2.2,3.4-4.5
			c-2.5-3.7-0.4-5.8,1.4-8.3c2.3-3.3,4.6-6.5,6.1-8.6c3.2-0.5,6.1-0.2,7.1-1.4c1-1.2,0.2-4,0.2-6c-0.3-0.5-0.5-0.9-0.8-1.4
			c3.1-0.8,6.2-2.3,9.3-2.4c59.2-0.2,118.5-0.1,177.7-0.1c1,0,2.2,0.4,3-0.1c1.4-0.8,2.6-2,3.9-3.1c-1.3-1.2-2.5-2.6-3.9-3.7
			c-0.5-0.4-1.6,0-2.5,0c-54.4,0-108.8,0.1-163.2,0.1c-4,0-7.9,0-12.1,0c0-32.7,0-64.9,0-97.4c2.2,0,4,0,5.8,0
			c59.8,0,119.6,0,179.4,0c28.2,0,50.3-22.1,50.3-50.4c0-61.1-0.2-122.2,0.2-183.3c0.1-11.7-3.8-20.7-11.8-28.4
			c-8.8-8.6-18.5-15.2-31.8-13.7c-7.8,0.9-15.7,1.6-23.6,1.7C206.9,202,139,202,71,202c-1.6,0-3.2,0-4.7,0c0-46.7,0-139,0-139h228.4
			c0,12.1,0,23.1,0,34c0,5,2,7,6.8,7c22.2-0.2,43.6,4.1,64.4,11.2c5.4,1.8,11.7,3.6,15.4,7.5c10.5,10.9,23,18.5,36.1,25.4
			c31.9,16.8,66,27.7,101.3,34.7c37.7,7.5,75.6,10.6,114,5.4c41.6-5.6,79.4-20.1,111.5-47.6c20.1-17.2,34-38.8,40.8-64.3
			c2.1-7.8,6.2-10.5,12.8-12c1.6-0.4,3.3-0.3,5-0.3c86.2,0,258.5,0,258.5,0s4.4,0,6.4,0c0.2,1.3,0.5,1.9,0.5,2.5
			c0.1,29,0,58,0.2,87.1c0,3.7-2.3,4-4.8,4.1c-7.7,0.5-15.3,0.9-22.9,1.2c-30.2,1.6-59.6,7.5-87.8,18.7c-2,0.8-4.9-0.1-7.2-0.6
			c-1.9-0.4-3.6-1.4-6.7-2.6c0.9,2.3,0.9,3.2,1.5,3.7c5.1,4.4,10.2,8.9,15.6,12.9c21.8,16.6,40.3,36.3,55.5,59.2
			c17.4,26.2,28.5,54.9,31.6,86.3c2.5,25.7-2.7,50.4-12.2,74.2c-12.2,30.8-31.1,57.2-53.5,81.3c-10.2,11-21,21.3-31.5,31.8
			c-3-2.4-5.1-4-7.2-5.7c-0.5,0.3-1,0.7-1.5,1c0.7,1.5,1.2,3.3,2.2,4.5c12.1,13.8,24.3,27.4,36.3,41.2c2.1,2.4,4,3.4,7.2,3.4
			c26.8-0.1,53.6-0.1,80.4-0.1c1.3,0,3.6,0.1,4.9,0.2C1074.7,569,1081.2,569.5,1088.5,570z"/>
	</g>
	<g>
		<defs>
			<path id="SVGID_00000017482238183246604920000002105364902595365272_" d="M95.9,668.1c-3.2,0-5.5,0.2-7.7,0
				c-4.4-0.5-5.8,1.2-5.6,5.6c0.3,10,0.2,19.9,0,29.9c-0.1,3.4,1,5,4.5,4.8c1.8-0.1,3.8,0.4,5.4-0.1c1.4-0.5,3.2-2.2,3.3-3.3
				C96,692.9,95.9,681,95.9,668.1z"/>
		</defs>
		<clipPath id="SVGID_00000016774155855755593280000011663810350769566870_">
			<use xlink:href="#SVGID_00000017482238183246604920000002105364902595365272_"  style="overflow:visible;"/>
		</clipPath>
		<path style="clip-path:url(#SVGID_00000016774155855755593280000011663810350769566870_);fill:#FFFFFF;" d="M780.8,573.1
			c-0.7,0.4-1.1,0.8-1.5,0.8c-32.2,6.3-64.8,9.2-97.6,10.1c-42.5,1.2-84.9-1.5-127.1-6.1c-37.2-4.1-74.5-7.4-112.1-6.8
			c-13.5,0.2-13.6,0-13.5,13.6c0,3.3-0.7,4.9-4.4,5.6c-25.2,5-46.9,16.9-65.7,34.5c-14.1,13.2-23,29.5-30.3,46.9
			c-12.9,31-35.7,49.7-69.2,54.7c-29.3,4.3-68.2-5.3-84.2-38c-11.6,4.8-23.3,9.5-35.2,14.4c4.5,10.6,10.8,20.1,19.3,27.6
			c31.7,28,68.8,40.6,110.6,32.6c45.9-8.8,79.3-35,96.7-79.3c5.7-14.6,13.4-27.5,25.2-37.6c16-13.7,33.5-23.2,55.9-19.1
			c10.8,2,21.6,0.8,32.4-2.6c15-4.7,30.5-7.6,45.8-0.8c13.4,6,27.1,6.4,40.9,3c15.1-3.8,29.8-4.2,44.7,1c14,4.9,29,6.4,43.6,3.8
			c16.7-3,33.1-2.8,49.5,1.6c12.4,3.4,25.6,3.1,37.8-0.9c18.8-6,36.5-0.7,54.6,3.4V691c-1.5,0.1-2.8,0.1-4.1,0.2
			c-16.3,1-27.8,14-25.9,29.7c1,8,5.7,14.3,10.5,20.6c5.4,7.2,12.6,10.2,21.2,9.6c12-0.8,21.2-7.2,29.2-15.5
			c2.2-2.3,1.6-4.7-1.3-6.6c-3.3-2.2-6.7-4.4-9.5-7.2c-9.5-9.7-13.2-21.8-13.1-35c0.2-33.4,0.9-66.9,1.2-100.3
			c0-1.8-1.4-3.5-2.1-5.3c-0.6,1.7-1.1,3.5-1.7,5.2c-0.1,0.2-0.4,0.4-0.8,0.7c-11.9-12.3-21.2-26.4-28.6-41.7
			c-25.5-52.9-26.5-107.3-9.6-162.7c17-55.5,50.2-100.1,93.2-138c2.7-2.4,5.9-4,9-6.1c-1.7-5.5-3.5-11.8-5.5-18.3
			c-3.8,2.9-3,6.5-1.7,9.9c1,2.8,0.3,4.2-1.8,6.3c-15.2,15.1-31.3,29.6-45.1,45.9c-35.1,41.5-56.6,89.5-63.6,143.7
			c-4.6,35.1-1.1,69.3,10.8,102.7C763.5,544.4,771.3,559.2,780.8,573.1z"/>
	</g>
	<g>
		<defs>
			<path id="SVGID_00000166670054730907191110000014602798451015243680_" d="M95.9,668.1c-3.2,0-5.5,0.2-7.7,0
				c-4.4-0.5-5.8,1.2-5.6,5.6c0.3,10,0.2,19.9,0,29.9c-0.1,3.4,1,5,4.5,4.8c1.8-0.1,3.8,0.4,5.4-0.1c1.4-0.5,3.2-2.2,3.3-3.3
				C96,692.9,95.9,681,95.9,668.1z"/>
		</defs>
		<clipPath id="SVGID_00000170255038792599101640000003600427609154818484_">
			<use xlink:href="#SVGID_00000166670054730907191110000014602798451015243680_"  style="overflow:visible;"/>
		</clipPath>
		<path style="clip-path:url(#SVGID_00000170255038792599101640000003600427609154818484_);fill:#FFFFFF;" d="M514.7,520.3
			c13.9,0.2,27.2-2.2,39-9.9c28.2-18.4,38.1-47.5,31.2-79.5c-5-23.2-3.7-45.5,4.5-67.5c4.1-10.9,8.7-21.5,12.8-32.4
			c5.1-13.4,6.8-27.2,1.8-41c-12.3-33.1-47.3-47.5-78.2-40.2c-31.9,7.5-57.2,50.9-57.3,77.6c0,29.8-5.2,58.5-19,85.2
			c-5.5,10.7-9.4,22-10.5,34c-1.4,15.5,0.6,30.5,10.5,43C466.2,510.4,488.2,520.3,514.7,520.3z"/>
	</g>
	<g>
		<defs>
			<path id="SVGID_00000029022503401241326760000011731812092165728928_" d="M95.9,668.1c-3.2,0-5.5,0.2-7.7,0
				c-4.4-0.5-5.8,1.2-5.6,5.6c0.3,10,0.2,19.9,0,29.9c-0.1,3.4,1,5,4.5,4.8c1.8-0.1,3.8,0.4,5.4-0.1c1.4-0.5,3.2-2.2,3.3-3.3
				C96,692.9,95.9,681,95.9,668.1z"/>
		</defs>
		<clipPath id="SVGID_00000061473299658444353300000003468459621196588962_">
			<use xlink:href="#SVGID_00000029022503401241326760000011731812092165728928_"  style="overflow:visible;"/>
		</clipPath>
		<path style="clip-path:url(#SVGID_00000061473299658444353300000003468459621196588962_);fill:#FFFFFF;" d="M214.3,185.6
			c4.1-0.6,7.8-0.7,11.3-1.7c13.3-3.8,20.9-13.3,23.8-26.3c2.7-12-1.5-22.2-11.4-29.3c-5.4-3.9-11.8-6.7-17.9-9.7
			c-5.2-2.6-10.9-4.1-15.7-7.2c-10.5-6.6-21.7-9.6-34.1-9.2c-12.9,0.4-24.6,9.3-27.7,21.8c-4.3,17.2,3.4,36.5,19,46.2
			C177.8,180.3,196.3,182.7,214.3,185.6z"/>
	</g>
	<g>
		<defs>
			<path id="SVGID_00000160186612596848232670000004890950145304905618_" d="M95.9,668.1c-3.2,0-5.5,0.2-7.7,0
				c-4.4-0.5-5.8,1.2-5.6,5.6c0.3,10,0.2,19.9,0,29.9c-0.1,3.4,1,5,4.5,4.8c1.8-0.1,3.8,0.4,5.4-0.1c1.4-0.5,3.2-2.2,3.3-3.3
				C96,692.9,95.9,681,95.9,668.1z"/>
		</defs>
		<clipPath id="SVGID_00000033359568074294956570000004957579684410488745_">
			<use xlink:href="#SVGID_00000160186612596848232670000004890950145304905618_"  style="overflow:visible;"/>
		</clipPath>
		<path style="clip-path:url(#SVGID_00000033359568074294956570000004957579684410488745_);fill:#FFFFFF;" d="M159.3,587
			C159.3,587,159.3,586.9,159.3,587c-4.7,0-9.3,0-14,0c-2.7,0-4,1-3.9,3.9c0.1,5.7-0.2,11.3,0.2,17c0.1,1.5,2.4,3.9,3.7,3.9
			c9.3,0.3,18.6,0.2,28,0c2.9,0,4.5-1.5,4.1-5.3c-0.6-4.7-0.4-9.5,0-14.2c0.4-3.9-1.1-5.4-4.5-5.3C168.3,587,163.8,587,159.3,587z"
			/>
	</g>
	<g>
		<defs>
			<path id="SVGID_00000088842539534889845460000007610280406857558441_" d="M95.9,668.1c-3.2,0-5.5,0.2-7.7,0
				c-4.4-0.5-5.8,1.2-5.6,5.6c0.3,10,0.2,19.9,0,29.9c-0.1,3.4,1,5,4.5,4.8c1.8-0.1,3.8,0.4,5.4-0.1c1.4-0.5,3.2-2.2,3.3-3.3
				C96,692.9,95.9,681,95.9,668.1z"/>
		</defs>
		<clipPath id="SVGID_00000009551182080117322280000004347277358201523627_">
			<use xlink:href="#SVGID_00000088842539534889845460000007610280406857558441_"  style="overflow:visible;"/>
		</clipPath>
		<path style="clip-path:url(#SVGID_00000009551182080117322280000004347277358201523627_);fill:#FFFFFF;" d="M244.3,586.9
			C244.3,587,244.3,587,244.3,586.9c-4.3,0-8.7,0.1-13,0c-3.9-0.1-5.1,1.8-4.3,6.8c0.6,3.8,0.7,7.6,0,11.3c-1,4.9,0.8,6.7,4.3,6.7
			c8.6,0,17.3,0,26,0c3.3,0,5.1-1.6,4.4-6.1c-0.7-4.3-0.5-8.7,0-13c0.6-4.4-1-5.9-4.5-5.8C252.9,587,248.6,586.9,244.3,586.9z"/>
	</g>
	<g>
		<defs>
			<path id="SVGID_00000031193602643919891370000017979073290827772573_" d="M95.9,668.1c-3.2,0-5.5,0.2-7.7,0
				c-4.4-0.5-5.8,1.2-5.6,5.6c0.3,10,0.2,19.9,0,29.9c-0.1,3.4,1,5,4.5,4.8c1.8-0.1,3.8,0.4,5.4-0.1c1.4-0.5,3.2-2.2,3.3-3.3
				C96,692.9,95.9,681,95.9,668.1z"/>
		</defs>
		<clipPath id="SVGID_00000077311076413771186790000016147894642003367588_">
			<use xlink:href="#SVGID_00000031193602643919891370000017979073290827772573_"  style="overflow:visible;"/>
		</clipPath>
		<path style="clip-path:url(#SVGID_00000077311076413771186790000016147894642003367588_);fill:#FFFFFF;" d="M837.7,648.4
			c0-8.6-6.5-15.5-14.7-15.5c-8.5-0.1-16.2,7.3-16.2,15.5c0,8.5,7.4,15.9,15.9,15.8C831.2,664.1,837.7,657.2,837.7,648.4z"/>
	</g>
	<g>
		<defs>
			<path id="SVGID_00000140722140297025944020000003938392922962739361_" d="M95.9,668.1c-3.2,0-5.5,0.2-7.7,0
				c-4.4-0.5-5.8,1.2-5.6,5.6c0.3,10,0.2,19.9,0,29.9c-0.1,3.4,1,5,4.5,4.8c1.8-0.1,3.8,0.4,5.4-0.1c1.4-0.5,3.2-2.2,3.3-3.3
				C96,692.9,95.9,681,95.9,668.1z"/>
		</defs>
		<clipPath id="SVGID_00000010282994861870269730000011057451752864193153_">
			<use xlink:href="#SVGID_00000140722140297025944020000003938392922962739361_"  style="overflow:visible;"/>
		</clipPath>
		<path style="clip-path:url(#SVGID_00000010282994861870269730000011057451752864193153_);fill:#FFFFFF;" d="M822.4,702.2
			c8.8,0.1,15.4-6.4,15.5-15.2c0.1-8.3-7.1-15.8-15.2-15.9c-8.5-0.1-15.3,6.8-15.4,15.5C807.2,695.6,813.6,702.1,822.4,702.2z"/>
	</g>
	<g>
		<defs>
			<path id="SVGID_00000057832952637304059930000002245150371284736421_" d="M95.9,668.1c-3.2,0-5.5,0.2-7.7,0
				c-4.4-0.5-5.8,1.2-5.6,5.6c0.3,10,0.2,19.9,0,29.9c-0.1,3.4,1,5,4.5,4.8c1.8-0.1,3.8,0.4,5.4-0.1c1.4-0.5,3.2-2.2,3.3-3.3
				C96,692.9,95.9,681,95.9,668.1z"/>
		</defs>
		<clipPath id="SVGID_00000136371600823008814390000017933013083214848151_">
			<use xlink:href="#SVGID_00000057832952637304059930000002245150371284736421_"  style="overflow:visible;"/>
		</clipPath>
		<path style="clip-path:url(#SVGID_00000136371600823008814390000017933013083214848151_);fill:#FFFFFF;" d="M96.5,751.4
			c0-5.2-0.1-10.3,0-15.5c0.1-3.2-1.3-4.7-4.4-4.7c-1.8,0-3.7,0.1-5.5,0.1c-3.1,0.1-4.2,1.5-4.2,4.7c0.2,9.8,0.3,19.7,0.1,29.5
			c-0.1,4.4,1.4,6.2,5.8,5.6c1.2-0.2,2.3-0.1,3.5,0c3.5,0.2,4.8-1.5,4.7-4.8C96.4,761.4,96.5,756.4,96.5,751.4z"/>
	</g>
	<g>
		<defs>
			<path id="SVGID_00000138557568240750407250000012750704208154499729_" d="M95.9,668.1c-3.2,0-5.5,0.2-7.7,0
				c-4.4-0.5-5.8,1.2-5.6,5.6c0.3,10,0.2,19.9,0,29.9c-0.1,3.4,1,5,4.5,4.8c1.8-0.1,3.8,0.4,5.4-0.1c1.4-0.5,3.2-2.2,3.3-3.3
				C96,692.9,95.9,681,95.9,668.1z"/>
		</defs>
		<clipPath id="SVGID_00000102509757562467869140000002645098453006830745_">
			<use xlink:href="#SVGID_00000138557568240750407250000012750704208154499729_"  style="overflow:visible;"/>
		</clipPath>
		<path style="clip-path:url(#SVGID_00000102509757562467869140000002645098453006830745_);fill:#FFFFFF;" d="M96.1,807
			C96.1,807,96.1,807,96.1,807c0-4.5-0.3-9,0.1-13.5c0.5-4.8-1.3-6.5-5.8-6c-1.7,0.2-3.5-0.2-4.9,0.3c-1.4,0.5-3.4,2-3.4,3.2
			c-0.2,10.3,0,20.6,0.1,30.9c0,3.2,1.8,4.4,4.8,4.2c1-0.1,2-0.2,3,0c5,0.8,6.4-1.6,6.1-6.2C95.9,815.7,96.1,811.3,96.1,807z"/>
	</g>
</g>
<path d="M1088.5,569.7c-7.2-0.5-13.8-1.1-20.3-1.5c-1.4-0.1-3.6-0.2-5-0.2c-26.8,0-53.6-0.1-80.4,0.1c-3.2,0-5.1-1-7.2-3.4
	c-12-13.8-24.3-27.5-36.3-41.2c-1.1-1.2-1.5-3-2.2-4.5c0.5-0.3,1-0.7,1.5-1c2.1,1.7,4.2,3.4,7.2,5.7c10.5-10.6,21.3-20.9,31.5-31.9
	c22.3-24.1,41.2-50.6,53.5-81.5c9.5-23.9,14.7-48.6,12.2-74.3c-3.1-31.4-14.2-60.1-31.6-86.4c-15.1-22.9-33.6-42.6-55.5-59.2
	c-5.4-4.1-10.4-8.6-15.6-12.9c-0.5-0.4-0.6-1.4-1.5-3.7c3.1,1.2,4.8,2.2,6.7,2.6c2.4,0.5,5.2,1.4,7.2,0.6
	c28.2-11.2,57.5-17.1,87.8-18.7c7.7-0.4,15.3-0.8,22.9-1.3c2.6-0.2,4.9-0.4,4.8-4.1c-0.1-29.1-0.1-58.1-0.2-87.2
	c0-0.6-0.2-1.3-0.5-2.5c-2,0-6.4,0-6.4,0S889,64,802.8,64c-1.7,0-3.4-0.1-5,0.3c-6.6,1.5-10.7,4.2-12.8,12
	c-6.8,25.5-20.7,47.1-40.8,64.3c-32.1,27.5-69.9,42-111.5,47.6c-38.4,5.2-76.3,2.1-114-5.4c-35.3-7-69.3-17.9-101.3-34.7
	c-13.1-6.9-25.7-14.4-36.1-25.4c-3.7-3.9-10-5.7-15.4-7.5c-20.9-7.1-42.3-11.4-64.4-11.2c-4.8,0-6.8-2-6.8-7c0-11,0-33,0-33
	s-152.3,0-228.4,0c0,45.7,0,91.7,0,138c1.5,0,3.1,0,4.7,0c68.1,0,136.2,0,204.3-0.1c7.9,0,15.8-0.8,23.6-1.7
	c13.3-1.5,23,5.1,31.8,13.7c8,7.7,11.9,16.7,11.8,28.4c-0.5,61.1-0.2,122.2-0.2,183.3c0,28.2-22.1,50.4-50.4,50.4
	c-59.9,0-119.8,0-179.7,0c-1.8,0-3.6,0-5.8,0c0,32.5,0,64.8,0,97.4c4.1,0,8.1,0,12.1,0c54.4,0,108.8-0.1,163.2-0.1
	c0.8,0,1.9-0.4,2.5,0c1.4,1.1,2.6,2.4,3.9,3.7c-1.3,1.1-2.4,2.3-3.9,3.1c-0.8,0.4-2,0.1-3,0.1c-59.2,0-118.5,0-177.7,0.1
	c-3.1,0-6.2,1.5-9.3,2.4c0.3,0.5,0.5,0.9,0.8,1.4c0,2.1,0.8,4.9-0.2,6c-1.1,1.2-3.9,0.9-7.1,1.4c-1.5,2.1-3.8,5.3-6.1,8.6
	c-1.8,2.5-3.8,4.6-1.4,8.3c1.6,2.3-0.8,4.8-3.4,4.5c-3.5-0.4-4.4,1.6-5.1,4.1c-1.2,4.3-5.1,8.4-1,13.4c0.5,0.7-2.2,4-3.4,6.1
	c-0.6-0.2-1.2-0.4-1.8-0.5c0,26.5,0,53.1,0,79.6c0,38.4,0.1,76.8-0.1,115.2c0,4.3,1.1,5.9,5.6,5.8c139.2-0.1,278.4,0,417.6-0.2
	c2,0,4.1-1.4,5.8-2.6c3.8-2.6,7.3-5.8,11.3-8.1c8.5-4.8,17.1-9.4,26-13.5c7.9-3.7,16.2-6.5,24.3-9.9c5.9-2.5,12-4.7,17.6-7.9
	c9.4-5.4,19.2-8.3,30.1-9.2c13.2-1,24.4-7.3,33.9-16.2c4.4-4.1,6.1-9.8,5.7-16c-0.6-7.9,1.3-15.2,6.1-21.6
	c5.2-7.2,14.6-10.8,22.4-8.7c9.3,2.5,15.6,9.8,16.6,19.1c0.5,4.5,0.7,9,1,13.5c0.5,7.4,3.8,13.4,8.9,18.5
	c8.9,8.9,12.8,19.2,10.3,31.8c-1.2,5.9,0.5,11.2,4.1,16c3.4,4.5,6.8,9,10.4,13.5c0.7,0.8,2.1,1.5,3.2,1.5c32,0,64,0,96-0.1
	c0.3,0,0.6-0.2,1.2-0.5c0-9.8,0-19.7,0-30h6c0,8.4,0.2,16.8-0.1,25c-0.2,4.5,1.5,5.6,5.8,5.6c48.3-0.1,96.7-0.2,145,0
	c4.5,0,6.1-1.2,6-6c-0.2-39.1,0-78.2-0.1-117.3c0-4.8,1.8-6,6.2-6c25.2,0.1,50.4,0,75.5,0.1c6.8,0,13.5,0.7,20.6,1
	c0.1,1.3,0.3,2.6,0.3,3.8c0,46.8,0,93.5,0,140.3c0,8.1-0.5,8.6-8.8,8.6c-43.7,0.1-87.4,0.2-131,0.1c-295.3-0.1-590.5-0.3-885.8-0.4
	c-3,0-6,0.1-9,0c-5.8-0.1-7-1.3-7-7.2c0-21.7,0-43.4,0-65.1c0-226.7,0-453.3,0-680c0-19.5,0-39.1,0-58.6c0-6.1,1.2-7.3,7.4-7.3
	c84.9,0,169.7-0.2,254.6,0.3c10.1,0.1,20.1,4,30.1,6.3c33.4,7.9,67.2,13.7,101.3,17.6c55.6,6.4,111.3,8.2,167.2,7.6
	c35.5-0.4,71-1.8,106.2-6.6c23.9-3.3,46.9-9.8,68.9-19.7c5.4-2.4,10.8-3.7,16.8-3.7c93.5,0.1,187.1,0.1,280.6,0c8.8,0,8.8,0,8.8,8.9
	c-0.1,152.8-0.1,305.7-0.2,458.5C1088.5,530.9,1088.5,549.6,1088.5,569.7z M142.7,468.9c0-8.3,0-16.3,0-24.3c0-5.7,1-6.5,6.8-6.4
	c44.5,0.9,89,1.9,133.4,2.5c4.6,0.1,9.5-1.6,13.9-3.2c5.3-2,7.5-6.2,7.5-12.2c-0.1-59.7-0.3-119.4,0.1-179.1
	c0.1-9.9-4.2-16.4-11.7-21.6c-2.7-1.9-5.5-3.7-8.4-5.4c-3.8-2.3-7.5-4.6-6.5-10.1c-70.8,0-141.2,0-211.6,0c0,121.6,0,242.9,0,364
	c10.9,0,21.6,0,32.5,0c0-1.4,0-2.6,0-3.7c0-31.2,0.1-62.4,0.1-93.5c0-6.9,0-6.9,6.8-6.9C117.8,468.9,129.9,468.9,142.7,468.9z
	 M301.3,98.3c2.3,0.1,4.3,0.1,6.3,0.4c15.5,2.1,31.1,3.2,46.3,6.7c15.9,3.6,32.1,7.8,43.5,21.3c1.5,1.7,3.6,2.9,5.6,4.2
	c21.4,14.1,44.6,24.2,68.8,32.3c48.5,16.1,98,24.4,149.2,20.1c36-3,69.3-14,99.7-33.4c27.9-17.9,48.8-41.5,58.6-73.8
	c0.4-1.3,0.6-2.7,1.1-4.7C752.8,81,725.5,88,697,89.3c-32.8,1.5-65.5,4-98.3,4.9c-40.5,1.1-81-0.9-121.3-4.2
	c-24.2-2-48.5-3.6-72.5-7.4c-29.2-4.6-58-11.5-87-17.2c-5.4-1.1-10.9-1.6-16.7-2.4C301.3,75.3,301.3,86.4,301.3,98.3z M148.3,468.9
	c1.7,0.1,2.9,0.3,4,0.3c47.6,0,95.3,0,142.9,0c1.6,0,4.3-0.2,5.9-0.6c20.4-4.5,34-22.3,34-44.8c0-60.3,0-120.6,0-181
	c0-2.6-0.1-5.4-0.6-7.9c-2.6-13-20.2-27.6-33.5-27.9c-4.5-0.1-9-0.2-13.5,0c-1.4,0.1-2.8,1-4.1,1.6c0.8,1.6,1.1,3.8,2.4,4.8
	c4.4,3.5,9.2,6.5,13.7,10c7.3,5.8,10.8,12.9,10.8,22.8c-0.4,52.5-0.2,105-0.2,157.5c0,7.8-0.1,15.7-0.1,23.5
	c0,7.1-3.8,11.7-9.7,15.2c-6.4,3.8-13.4,4.9-20.6,4.8c-42.1-0.7-84.3-1.6-126.4-2.4c-1.6,0-3.1,0-4.8,0L148.3,468.9L148.3,468.9z
	 M716.1,836c-2.6-3.1-4.6-5.5-6.7-7.9c-6.3-6.9-9.3-14.9-7.5-24.3c1.9-10-1.2-18.3-8.3-25.4c-7.2-7.1-11.2-15.6-11.1-25.9
	c0-3.2-0.3-6.3-0.8-9.5c-1.2-7.7-6-12.9-12.9-14.1c-6.7-1.2-13.6,2.1-16.5,9.2c-2,4.9-2.9,10.5-3.1,15.9c-0.2,6.8-1.8,13.1-6.4,17.9
	c-10.3,10.7-22.8,18.1-37.8,19.4c-11.3,1-21.3,4.3-31.1,9.7c-5.4,3-11.5,4.8-17.3,7.3c-7.9,3.3-15.9,6.4-23.7,10.1
	c-7.5,3.5-14.7,7.7-22,11.6c-3,1.6-6.1,3.1-9.1,4.7c0.2,0.7,0.1,0.6,0.3,1.2L716.1,836L716.1,836z M119.3,851c52.1,0,103.7,0,155,0
	c0-3,0-5.5,0-8c-51.8,0-103.2,0-155,0C119.3,845.7,119.3,848.2,119.3,851z M830.3,851c24.7,0,48.8,0,73,0c0-2.8,0-5.4,0-8
	c-24.6,0-48.7,0-73,0C830.3,845.7,830.3,848.2,830.3,851z"/>
<path d="M780.8,573.1c-9.5-13.9-17.3-28.7-23-44.5c-11.9-33.3-15.4-67.6-10.8-102.6c7.1-54.2,28.6-102.1,63.6-143.7
	c13.8-16.4,29.8-30.8,45.1-45.9c2.1-2.1,2.8-3.5,1.8-6.3c-1.2-3.4-2.1-7,1.7-9.9c2,6.6,3.9,12.8,5.5,18.3c-3.1,2.1-6.4,3.8-9,6.1
	c-43,37.9-76.2,82.5-93.2,138c-17,55.4-16,109.8,9.6,162.7c7.4,15.3,16.7,29.5,28.6,41.7c0.4-0.3,0.7-0.5,0.8-0.7
	c0.6-1.7,1.2-3.4,1.7-5.2c0.7,1.8,2.1,3.5,2.1,5.3c-0.3,33.4-0.9,66.9-1.2,100.3c-0.1,13.2,3.6,25.3,13.1,35c2.8,2.8,6.2,5,9.5,7.2
	c2.8,1.9,3.5,4.4,1.3,6.6c-8,8.3-17.2,14.7-29.2,15.5c-8.7,0.6-15.8-2.5-21.2-9.6c-4.8-6.3-9.5-12.6-10.5-20.6
	c-1.9-15.8,9.6-28.7,25.9-29.7c1.3-0.1,2.6-0.1,4.1-0.2v-55.6c-18.1-4-35.9-9.4-54.6-3.4c-12.2,3.9-25.4,4.2-37.8,0.9
	c-16.4-4.4-32.8-4.6-49.5-1.6c-14.6,2.6-29.6,1.1-43.6-3.8c-15-5.2-29.6-4.8-44.7-1c-13.9,3.5-27.5,3-40.9-3
	c-15.3-6.8-30.8-3.9-45.8,0.8c-10.8,3.4-21.6,4.6-32.4,2.6c-22.4-4.1-39.8,5.4-55.9,19.1c-11.9,10.1-19.5,23.1-25.2,37.6
	C349.3,728,315.9,754.2,270,763c-41.8,8-78.9-4.6-110.6-32.6c-8.5-7.5-14.8-17-19.3-27.6c11.9-4.9,23.6-9.6,35.2-14.4
	c16,32.7,54.8,42.4,84.2,38c33.5-5,56.2-23.7,69.2-54.7c7.3-17.5,16.2-33.8,30.3-46.9c18.8-17.6,40.5-29.4,65.7-34.5
	c3.7-0.7,4.4-2.3,4.4-5.6c-0.1-13.6,0-13.4,13.5-13.6c37.5-0.6,74.8,2.7,112.1,6.8c42.2,4.6,84.6,7.3,127.1,6.1
	c32.8-0.9,65.4-3.8,97.6-10.1C779.7,573.8,780.1,573.5,780.8,573.1z M797.7,628.6c0-7.4-0.5-15.1,0.1-22.7
	c0.8-9.2-1.8-16.2-8.9-22.3c-3.4-2.9-6.1-4.1-10.5-3.3c-14.1,2.5-28.2,5.1-42.4,6.6c-61.6,6.2-123.1,3.6-184.5-2.9
	c-29.1-3.1-58.4-4.2-87.7-6.1c-2.1-0.1-4.2,0-6.5,0c0,15,0,29.1,0,43.5c8.1,1.3,15.5-1.5,22.9-3.6c15.8-4.3,31.7-7.4,47.4-0.3
	c12.8,5.7,25.7,6.3,39,2.8c16.8-4.5,33-4.1,49.5,2.1c12.5,4.6,25.8,5.1,39,2.9c16.1-2.8,32.1-3.5,48,0.9c13.7,3.8,27.1,2.9,40.8-0.6
	c8-2.1,16.8-2.2,25.2-1.6C778.5,624.6,787.8,627,797.7,628.6z M798.7,697.4c-13.9,0.5-22.7,7-24.9,17c-1.9,8.8,10,27,16.2,29.2
	c1.9,0.7,3.9,1.3,5.8,1.2c10.2-0.3,18.9-4.1,26-11.9C808.4,724.6,801.9,712.1,798.7,697.4z M347,708.7c11.2-14,14.5-31.2,22.6-46.3
	c-8.2-3.3-16.3-6.6-24.8-10c-6.9,14.4-13.6,28.5-20.5,43C331.5,699.6,339.1,704,347,708.7z M300.2,748c-4.8-7.6-9.5-14.8-13.3-20.7
	c-13.7,2.6-26.5,5.1-39.6,7.6c0,7.5,0,15.7,0,24.4C266,760.2,283.1,755.2,300.2,748z M147.6,703.8c8.3,16.8,21.2,28.4,36.9,37.8
	c4.9-6.8,9.5-13.2,14.3-19.9c-10.7-7.4-20.5-15.5-26.3-27.5C164.1,697.4,156,700.5,147.6,703.8z M321.6,700.2
	c-10.4,8.4-20,16.1-29.7,24c4.1,6.4,8.6,13.4,13.3,20.5c14.6-8.2,27.9-17.6,38.4-31C335.8,708.9,328.3,704.3,321.6,700.2z
	 M241.3,734.7c-12.8-3.3-24.8-6.4-37.2-9.6c-4.2,5.9-8.9,12.5-13.8,19.4c16.3,8.4,33.1,12.7,51,14.6
	C241.3,750.3,241.3,742.1,241.3,734.7z M384.8,612c-14.5,9.2-27.6,19.6-36.9,34.7c8.8,3.6,16.9,6.9,24,9.8
	c9.2-8.5,17.8-16.6,26.7-24.9C394.3,625.5,389.6,618.9,384.8,612z M390.2,609.3c4.9,7,9.3,13.4,13.5,19.6c8.3-3.4,16.4-6.6,24.6-10
	c0-7.5,0-15.1,0-23.1C414.7,598.3,402.3,602.6,390.2,609.3z M450.3,578c-4.9,0-9.8,0-15,0c0,13.8,0,27.5,0,41.7
	c5,0.4,9.8,0.8,15,1.2C450.3,606.4,450.3,592.3,450.3,578z"/>
<path d="M514.7,520.3c-26.5,0-48.5-9.9-65.1-30.8c-10-12.5-12-27.4-10.5-43c1.1-12.1,4.9-23.3,10.5-34c13.8-26.7,19-55.4,19-85.2
	c0-26.7,25.4-70.1,57.3-77.6c30.9-7.3,66,7.1,78.2,40.2c5.1,13.7,3.4,27.5-1.8,41c-4.1,10.8-8.8,21.5-12.8,32.4
	c-8.2,22-9.5,44.3-4.5,67.5c6.8,32-3,61.2-31.2,79.5C542,518.1,528.7,520.5,514.7,520.3z M517.2,514.1c12-0.5,27-2.8,39.4-13.3
	c21.3-18,27.9-41.3,22.4-67.9c-4.5-21.5-5-42.6,1.9-63.5c4.1-12.3,9.3-24.1,13.9-36.2c4.3-11.1,7.7-22.4,5.2-34.5
	c-8.1-39.5-59.8-57.2-89.3-34.9c-23.2,17.5-35.7,41.1-36.1,70.7c-0.4,27.5-6.3,53.6-18.2,78.6c-4.3,8.9-8,18.4-10,28
	c-3.7,17.5-1.7,34.5,11,48.2C472.5,505.5,491.1,514.3,517.2,514.1z"/>
<path d="M198.3,174.6c-18-2.9-36.4-5.3-52.6-15.4c-15.6-9.7-23.3-29.1-19-46.2c3.1-12.5,14.8-21.4,27.7-21.8
	c12.4-0.4,23.6,2.6,34.1,9.2c4.8,3.1,10.5,4.6,15.7,7.2c6.1,3,12.4,5.7,17.9,9.7c9.9,7.1,14,17.4,11.4,29.3
	c-2.9,13-10.5,22.5-23.8,26.3C206.1,173.9,202.4,174,198.3,174.6z M159.1,97.2c-16.3-0.1-26.7,8.5-27.1,23
	c-0.4,13,4.1,24.1,14.8,32.2c9.8,7.4,21.4,9.5,32.9,12.5c9.1,2.3,18.2,4.3,27.6,2.1c11.1-2.7,16.8-10.6,19.7-21
	c2.7-9.5-0.6-17.3-7.9-23.1c-4.6-3.7-10.2-6.1-15.5-8.7c-6.8-3.4-14-6.1-20.6-9.7C175.2,100.1,167.4,96.9,159.1,97.2z"/>
<path d="M159.3,587c4.5,0,9,0.1,13.5,0c3.4-0.1,4.9,1.4,4.5,5.3c-0.4,4.7-0.6,9.5,0,14.2c0.4,3.7-1.2,5.2-4.1,5.3
	c-9.3,0.1-18.7,0.3-28,0c-1.3,0-3.6-2.5-3.7-3.9c-0.4-5.6-0.1-11.3-0.2-17c0-2.8,1.3-3.9,3.9-3.9C150,587,154.6,586.9,159.3,587
	C159.3,586.9,159.3,587,159.3,587z M148.3,593c0,4.1,0,8,0,12c7.8,0,15.3,0,23,0c0-4.1,0-8,0-12C163.5,593,155.9,593,148.3,593z"/>
<path d="M244.3,586.9c4.3,0,8.7,0.1,13,0c3.5-0.1,5,1.4,4.5,5.8c-0.6,4.3-0.7,8.7,0,13c0.7,4.5-1.1,6.1-4.4,6.1
	c-8.6,0.1-17.3,0.1-26,0c-3.5,0-5.2-1.8-4.3-6.7c0.7-3.7,0.6-7.6,0-11.3c-0.9-5.1,0.4-7,4.3-6.8C235.6,587.1,240,587,244.3,586.9
	C244.3,587,244.3,587,244.3,586.9z M232.3,605c7.9,0,15.5,0,23,0c0-4.2,0-8.1,0-12c-7.8,0-15.3,0-23,0
	C232.3,597.1,232.3,600.8,232.3,605z"/>
<path d="M837.7,648.4c0,8.8-6.5,15.7-15,15.8c-8.5,0.1-16-7.3-15.9-15.8c0-8.3,7.7-15.6,16.2-15.5
	C831.2,632.9,837.7,639.7,837.7,648.4z M813.5,648.3c-0.1,5.2,3.7,9.6,8.5,9.8s9.5-4.4,9.7-9.5c0.2-4.8-4.1-9.3-9-9.5
	C817.7,639,813.6,643.2,813.5,648.3z"/>
<path d="M95.9,668.1c0,12.9,0.1,24.8-0.2,36.8c0,1.2-1.9,2.8-3.3,3.3c-1.6,0.6-3.6,0-5.4,0.1c-3.5,0.2-4.6-1.3-4.5-4.8
	c0.2-10,0.3-19.9,0-29.9c-0.1-4.4,1.2-6.1,5.6-5.6C90.4,668.3,92.7,668.1,95.9,668.1z M89.9,673.5c-2.3,1.3-3.4,21.2-1.5,29.4
	C90.8,701.6,91.8,682,89.9,673.5z"/>
<path class="st15" d="M140.5,313.2c0-24.8-0.1-49.7,0.1-74.5c0-3.6-0.9-5.1-4.7-5.1c-10.2,0.2-20.3,0.2-30.5,0
	c-4.5-0.1-5.7,1.7-5.7,5.9c0.1,49.3,0.2,98.7,0.2,148c0,4,1.4,5.7,5.6,5.6c9.8-0.2,19.7-0.2,29.5,0c4.5,0.1,5.7-1.7,5.7-6
	C140.4,362.6,140.5,337.9,140.5,313.2z"/>
<path class="st15" d="M213.7,313.6c0-24.8-0.1-49.6,0.1-74.4c0-4.1-1.1-5.6-5.3-5.5c-10.5,0.2-21,0.1-31.4-0.1
	c-4-0.1-5.5,1.3-5.5,5.5c0.1,49.4,0.1,98.9,0,148.4c0,4.5,1.8,5.8,6,5.7c10.1-0.2,20.3-0.2,30.5,0c4.2,0.1,5.8-1.1,5.8-5.6
	C213.6,362.9,213.7,338.3,213.7,313.6z"/>
<path class="st15" d="M283.9,313C283.9,313,283.9,313,283.9,313c-0.1-24.8-0.1-49.6,0-74.4c0-4.1-1.2-5.4-6.8-4.8
	c-7.9,0.9-15.9,1-23.9,0.1c-6.8-0.8-9.7-0.6-9.7,5c0.1,49.5,0.1,98.9,0,148.4c0,4.8,1.7,6,6.1,5.9c9.2-0.3,18.3-0.1,27.5-0.1
	c6.6,0,6.8-0.1,6.8-6.6C284,362,283.9,337.5,283.9,313z"/>
<path class="st16" d="M301.3,98.3c0-11.8,0-22.9,0-35.3c5.8,0.8,11.3,1.3,16.7,2.4c29,5.8,57.8,12.6,87,17.2
	c24,3.8,48.3,5.3,72.5,7.4c40.4,3.4,80.8,5.3,121.3,4.2c32.8-0.9,65.5-3.3,98.3-4.9c28.5-1.3,55.7-8.3,83.4-18.1
	c-0.5,2.1-0.7,3.4-1.1,4.7c-9.8,32.3-30.7,56-58.6,73.8c-30.4,19.5-63.7,30.4-99.7,33.4c-51.3,4.3-100.8-3.9-149.2-20.1
	c-24.2-8.1-47.4-18.3-68.8-32.3c-2-1.3-4.1-2.5-5.6-4.2c-11.4-13.5-27.6-17.7-43.5-21.3c-15.1-3.4-30.8-4.6-46.3-6.7
	C305.6,98.4,303.6,98.4,301.3,98.3z"/>
<path class="st1" d="M119.3,851c0-2.8,0-5.3,0-8c51.8,0,103.2,0,155,0c0,2.5,0,5,0,8C223,851,171.4,851,119.3,851z"/>
<path class="st1" d="M830.3,851c0-2.8,0-5.3,0-8c24.3,0,48.4,0,73,0c0,2.6,0,5.2,0,8C879,851,855,851,830.3,851z"/>
<g>
	<path class="st17" d="M716.1,836H502c-0.2-0.7-0.1-0.6-0.3-1.2c3-1.6,6.1-3.1,9.1-4.7c7.3-3.9,14.5-8,22-11.6
		c7.8-3.7,15.8-6.8,23.7-10.1c5.8-2.4,11.9-4.2,17.3-7.3c9.8-5.5,19.8-8.8,31.1-9.7c14.9-1.3,27.5-8.6,37.8-19.4
		c4.6-4.8,6.2-11.1,6.4-17.9c0.2-5.3,1.1-11,3.1-15.9c2.9-7.2,9.9-10.4,16.5-9.2c6.9,1.2,11.7,6.4,12.9,14.1
		c0.5,3.1,0.8,6.3,0.8,9.5c0,10.3,3.9,18.8,11.1,25.9c7.2,7,10.3,15.3,8.3,25.4c-1.8,9.4,1.2,17.4,7.5,24.3
		C711.5,830.5,713.5,832.9,716.1,836z"/>
	<path class="st17" d="M797.7,628.6c-9.8-1.7-19.1-4-28.5-4.7c-8.3-0.5-17.2-0.5-25.2,1.6c-13.8,3.5-27.1,4.4-40.8,0.6
		c-15.9-4.4-31.9-3.7-48-0.9c-13.1,2.2-26.5,1.8-39-2.9c-16.5-6.1-32.8-6.5-49.5-2.1c-13.3,3.5-26.2,2.9-39-2.8
		c-15.7-7.1-31.6-4-47.4,0.3c-7.5,2-14.8,4.9-22.9,3.6c0-14.4,0-28.5,0-43.5c2.3,0,4.4-0.1,6.5,0c29.2,2,58.6,3,87.7,6.1
		c61.5,6.5,122.9,9,184.5,2.9c14.2-1.4,28.3-4.1,42.4-6.6c4.4-0.8,7.1,0.4,10.5,3.3c7.1,6.1,9.7,13.1,8.9,22.3
		C797.1,613.5,797.7,621.2,797.7,628.6z"/>
	<path class="st17" d="M798.7,697.4c3.1,14.7,9.7,27.3,23.1,35.5c-7.2,7.7-15.8,11.6-26,11.9c-1.9,0-4-0.6-5.8-1.2
		c-6.2-2.2-18.1-20.4-16.2-29.2C776,704.4,784.9,697.8,798.7,697.4z"/>
	<path class="st17" d="M450.3,578c0,14.3,0,28.4,0,42.9c-5.2-0.4-10-0.8-15-1.2c0-14.2,0-27.9,0-41.7C440.5,578,445.4,578,450.3,578
		z"/>
</g>
<path class="st18" d="M517.2,514.1c-26,0.1-44.7-8.7-59.8-24.9c-12.7-13.8-14.7-30.8-11-48.2c2-9.6,5.7-19.1,10-28
	c11.9-24.9,17.8-51.1,18.2-78.6c0.5-29.5,13-53.1,36.1-70.7c29.5-22.3,81.2-4.6,89.3,34.9c2.5,12.1-1,23.4-5.2,34.5
	c-4.6,12.1-9.8,24-13.9,36.2c-7,20.9-6.4,42-1.9,63.5c5.5,26.6-1.1,49.9-22.4,67.9C544.2,511.3,529.2,513.7,517.2,514.1z M515,483.2
	c19,0.1,32.2-13.1,32.7-32c0.6-23.6-19.9-33.4-35.4-33.9c-17.9-0.5-32.5,14.7-32.6,33.3C479.6,469.5,494.4,483,515,483.2z"/>
<path class="st19" d="M159.1,97.2c8.3-0.3,16.1,3,23.9,7.2c6.6,3.7,13.8,6.3,20.6,9.7c5.3,2.7,10.9,5.1,15.5,8.7
	c7.2,5.8,10.6,13.6,7.9,23.1c-3,10.4-8.6,18.4-19.7,21c-9.4,2.3-18.5,0.2-27.6-2.1c-11.4-2.9-23.1-5-32.8-12.5
	c-10.7-8.2-15.2-19.3-14.8-32.2C132.4,105.7,142.8,97.1,159.1,97.2z"/>
<g>
	<path d="M822.4,702.2c-8.9-0.1-15.2-6.6-15.1-15.6c0.1-8.7,6.9-15.6,15.4-15.5c8.1,0.1,15.2,7.5,15.2,15.9
		C837.8,695.8,831.2,702.3,822.4,702.2z M813.6,686.7c0.1,5.1,4.2,9.4,9,9.4c5.1,0,9.1-4.2,9-9.2c-0.1-5.1-4.7-9.7-9.6-9.5
		C817.5,677.5,813.6,681.9,813.6,686.7z"/>
	<path class="st20" d="M813.5,648.3c0.1-5.2,4.2-9.3,9.1-9.1c4.9,0.2,9.2,4.6,9,9.5c-0.2,5.1-4.9,9.7-9.7,9.5
		C817.2,657.9,813.4,653.5,813.5,648.3z"/>
</g>
<path class="st20" d="M813.6,686.7c-0.1-4.8,3.9-9.2,8.4-9.4c4.9-0.2,9.5,4.4,9.6,9.5c0.1,5-4,9.2-9,9.2
	C817.8,696.1,813.7,691.8,813.6,686.7z"/>
<path class="st21" d="M89,765.9c-0.6-1.1-1.6-2.1-1.6-3.2c-0.2-7.5-0.2-15,0-22.5c0-1.1,1.2-2.2,1.8-3.2c0.5,1,1.4,2.1,1.4,3.1
	c0.1,8.3,0.1,16.6,0.1,25C90,765.3,89.5,765.6,89,765.9z"/>
<g>
	<path d="M96.5,751.4c0,5-0.1,10,0,15c0.1,3.3-1.2,5-4.7,4.8c-1.2-0.1-2.3-0.1-3.5,0c-4.4,0.6-5.9-1.2-5.8-5.6
		c0.2-9.8,0.1-19.7-0.1-29.5c-0.1-3.2,1.1-4.7,4.2-4.7c1.8,0,3.7-0.1,5.5-0.1c3.1,0,4.5,1.5,4.4,4.7
		C96.4,741.1,96.5,746.3,96.5,751.4z M89,765.9c0.5-0.3,1.1-0.5,1.6-0.8c0-8.3,0.1-16.7-0.1-25c0-1-0.9-2.1-1.4-3.1
		c-0.6,1.1-1.7,2.2-1.8,3.2c-0.2,7.5-0.1,15,0,22.5C87.4,763.8,88.4,764.8,89,765.9z"/>
	<path d="M96.1,807c0,4.3-0.2,8.7,0.1,13c0.3,4.6-1.1,7-6.1,6.2c-1-0.2-2-0.1-3,0c-3,0.2-4.8-1-4.8-4.2c-0.1-10.3-0.3-20.6-0.1-30.9
		c0-1.1,2-2.6,3.4-3.2c1.4-0.6,3.3-0.2,4.9-0.3c4.5-0.4,6.3,1.3,5.8,6C95.7,798,96.1,802.5,96.1,807C96.1,807,96.1,807,96.1,807z
		 M89.2,821.5c0.4-0.2,0.8-0.4,1.2-0.6c0-8.4,0-16.8-0.1-25.2c0-0.9-0.9-1.7-1.5-2.6c-0.5,0.8-1.5,1.6-1.5,2.5
		c-0.1,7.8-0.1,15.6,0.1,23.4C87.6,819.8,88.6,820.6,89.2,821.5z"/>
	<path class="st21" d="M347,708.7c-7.9-4.7-15.5-9.1-22.7-13.3c6.9-14.5,13.6-28.6,20.5-43c8.5,3.4,16.6,6.7,24.8,10
		C361.5,677.5,358.2,694.6,347,708.7z"/>
	<path class="st21" d="M300.2,748c-17.1,7.2-34.2,12.2-52.9,11.2c0-8.6,0-16.9,0-24.4c13.1-2.5,25.9-5,39.6-7.6
		C290.8,733.2,295.4,740.4,300.2,748z"/>
	<path class="st21" d="M147.6,703.8c8.4-3.3,16.6-6.4,25-9.7c5.8,12,15.5,20.1,26.3,27.5c-4.8,6.7-9.4,13.1-14.3,19.9
		C168.8,732.2,155.9,720.6,147.6,703.8z"/>
	<path class="st21" d="M321.6,700.2c6.6,4.1,14.1,8.7,22,13.5c-10.5,13.4-23.8,22.8-38.4,31c-4.6-7.2-9.1-14.1-13.3-20.5
		C301.6,716.3,311.2,708.6,321.6,700.2z"/>
	<path class="st21" d="M241.3,734.7c0,7.3,0,15.6,0,24.4c-17.9-2-34.7-6.2-51-14.6c4.9-6.9,9.6-13.5,13.8-19.4
		C216.5,728.3,228.5,731.4,241.3,734.7z"/>
	<path class="st21" d="M384.8,612c4.8,6.9,9.5,13.5,13.8,19.6c-8.9,8.3-17.5,16.4-26.7,24.9c-7.1-2.9-15.2-6.2-24-9.8
		C357.2,631.6,370.3,621.3,384.8,612z"/>
	<path class="st21" d="M390.2,609.3c12.2-6.8,24.6-11.1,38.1-13.4c0,8,0,15.6,0,23.1c-8.2,3.3-16.2,6.6-24.6,10
		C399.4,622.8,395,616.4,390.2,609.3z"/>
	<path class="st21" d="M148.3,593c7.7,0,15.2,0,23,0c0,4,0,7.9,0,12c-7.7,0-15.2,0-23,0C148.3,601,148.3,597.1,148.3,593z"/>
	<path class="st21" d="M232.3,605c0-4.2,0-7.9,0-12c7.7,0,15.2,0,23,0c0,3.9,0,7.8,0,12C247.8,605,240.2,605,232.3,605z"/>
	<path class="st21" d="M89.2,821.5c-0.6-0.8-1.7-1.7-1.7-2.5c-0.2-7.8-0.2-15.6-0.1-23.4c0-0.8,1-1.6,1.5-2.5
		c0.5,0.8,1.4,1.7,1.5,2.6c0.1,8.4,0.1,16.8,0.1,25.2C90.1,821.1,89.6,821.3,89.2,821.5z"/>
	<path class="st21" d="M89.9,673.5c1.9,8.5,0.9,28.1-1.5,29.4C86.6,694.7,87.6,674.7,89.9,673.5z"/>
</g>
<path d="M140.5,313.2c0,24.7-0.1,49.3,0.1,74c0,4.2-1.2,6-5.7,6c-9.8-0.2-19.7-0.2-29.5,0c-4.2,0.1-5.6-1.5-5.6-5.6
	c0-49.3,0-98.7-0.2-148c0-4.2,1.2-6,5.7-5.9c10.2,0.2,20.3,0.2,30.5,0c3.8-0.1,4.7,1.4,4.7,5.1C140.4,263.6,140.5,288.4,140.5,313.2
	z M106.3,240c0,19.3,0,37.9,0,57c9.5,0,18.7,0,28,0c0-19.1,0-37.9,0-57C124.9,240,115.8,240,106.3,240z M134.3,346
	c0-13.9,0-27.5,0-41c-9.6,0-18.8,0-28,0c0,13.8,0,27.3,0,41C115.7,346,124.8,346,134.3,346z M134.3,352c-9.4,0-18.6,0-28,0
	c0,11.9,0,23.4,0,35c9.6,0,18.8,0,28,0C134.3,375.2,134.3,363.6,134.3,352z"/>
<path d="M213.7,313.6c0,24.6-0.1,49.3,0.1,73.9c0,4.5-1.6,5.7-5.8,5.6c-10.1-0.2-20.3-0.2-30.5,0c-4.1,0.1-6-1.2-6-5.7
	c0.1-49.5,0.1-98.9,0-148.4c0-4.2,1.5-5.6,5.5-5.5c10.5,0.2,21,0.3,31.4,0.1c4.2-0.1,5.3,1.4,5.3,5.5
	C213.6,264,213.7,288.8,213.7,313.6z M178.3,298c9.8,0,19.4,0,29,0c0-19.6,0-38.8,0-58c-9.8,0-19.3,0-29,0
	C178.3,259.5,178.3,278.6,178.3,298z M177.3,305c0,13.7,0,27.4,0,41c10.2,0,20.1,0,30,0c0-13.8,0-27.2,0-41
	C197.3,305,187.6,305,177.3,305z M207.3,387c0-11.7,0-23.2,0-35c-9.8,0-19.4,0-29,0c0,11.8,0,23.4,0,35
	C188.1,387,197.6,387,207.3,387z"/>
<path d="M283.9,313c0,24.5,0,49,0,73.4c0,6.5-0.1,6.6-6.8,6.6c-9.2,0-18.3-0.2-27.5,0.1c-4.4,0.1-6.2-1.1-6.1-5.9
	c0.1-49.5,0.1-98.9,0-148.4c0-5.6,2.9-5.8,9.7-5c7.9,0.9,15.9,0.8,23.9-0.1c5.6-0.6,6.8,0.6,6.8,4.8
	C283.8,263.4,283.9,288.2,283.9,313C283.9,313,283.9,313,283.9,313z M277.3,240c-9.7,0-18.8,0-28,0c0,19.2,0,37.9,0,57
	c9.5,0,18.6,0,28,0C277.3,277.9,277.3,259.1,277.3,240z M249.3,346c9.7,0,18.8,0,28,0c0-13.8,0-27.3,0-41c-9.5,0-18.7,0-28,0
	C249.3,318.8,249.3,332.2,249.3,346z M249.3,387c9.4,0,18.8,0,28,0c0-11.7,0-23.3,0-35c-9.5,0-18.6,0-28,0
	C249.3,363.7,249.3,375.2,249.3,387z"/>
<path d="M515,483.2c-20.6-0.1-35.3-13.7-35.3-32.5c0.1-18.6,14.7-33.8,32.6-33.3c15.6,0.4,36,10.3,35.4,33.9
	C547.2,470.1,533.9,483.3,515,483.2z"/>
<g>
	<path class="st15" d="M142.7,468.9c-12.8,0-24.9,0-37,0c-6.8,0-6.8,0-6.8,6.9c0,31.2-0.1,62.4-0.1,93.5c0,1.1,0,2.3,0,3.7
		c-11,0-21.6,0-32.5,0c0-121.1,0-242.4,0-364c70.4,0,140.9,0,211.6,0c-1,5.6,2.7,7.8,6.5,10.1c2.8,1.7,5.7,3.5,8.4,5.4
		c7.5,5.3,11.7,11.7,11.7,21.6c-0.3,59.7-0.2,119.4-0.1,179.1c0,6-2.2,10.2-7.5,12.2c-4.4,1.7-9.3,3.3-13.9,3.2
		c-44.5-0.6-89-1.6-133.4-2.5c-5.8-0.1-6.8,0.7-6.8,6.4C142.7,452.6,142.7,460.5,142.7,468.9z"/>
	<path class="st22" d="M148.3,468.9v-24.1c1.6,0,3.2,0,4.8,0c42.1,0.8,84.3,1.7,126.4,2.4c7.2,0.1,14.2-1,20.6-4.8
		c5.8-3.5,9.6-8.1,9.7-15.2c0.1-7.8,0.1-15.7,0.1-23.5c0-52.5-0.2-105,0.2-157.5c0.1-9.9-3.4-17.1-10.8-22.8
		c-4.4-3.5-9.3-6.5-13.7-10c-1.3-1-1.6-3.2-2.4-4.8c1.4-0.6,2.8-1.5,4.1-1.6c4.5-0.2,9-0.1,13.5,0c13.3,0.2,30.9,14.8,33.5,27.9
		c0.5,2.6,0.6,5.3,0.6,7.9c0,60.3,0.1,120.6,0,181c0,22.4-13.6,40.2-34,44.8c-1.6,0.4-4.2,0.6-5.9,0.6c-47.6,0-95.3,0-142.9,0
		C151.1,469.1,150,469,148.3,468.9z"/>
	<path class="st22" d="M106.3,240c9.6,0,18.6,0,28,0c0,19.1,0,37.9,0,57c-9.3,0-18.5,0-28,0C106.3,278,106.3,259.3,106.3,240z"/>
	<path class="st22" d="M134.3,346c-9.5,0-18.6,0-28,0c0-13.7,0-27.2,0-41c9.2,0,18.4,0,28,0C134.3,318.5,134.3,332.1,134.3,346z"/>
	<path class="st22" d="M134.3,352c0,11.6,0,23.1,0,35c-9.2,0-18.4,0-28,0c0-11.6,0-23.1,0-35C115.7,352,124.8,352,134.3,352z"/>
	<path class="st22" d="M178.3,298c0-19.4,0-38.5,0-58c9.7,0,19.2,0,29,0c0,19.2,0,38.4,0,58C197.7,298,188.1,298,178.3,298z"/>
	<path class="st22" d="M177.3,305c10.3,0,20,0,30,0c0,13.8,0,27.2,0,41c-9.9,0-19.8,0-30,0C177.3,332.4,177.3,318.8,177.3,305z"/>
	<path class="st22" d="M207.3,387c-9.7,0-19.1,0-29,0c0-11.6,0-23.2,0-35c9.6,0,19.2,0,29,0C207.3,363.8,207.3,375.3,207.3,387z"/>
	<path class="st22" d="M277.3,240c0,19.1,0,37.9,0,57c-9.4,0-18.5,0-28,0c0-19.1,0-37.8,0-57C258.5,240,267.6,240,277.3,240z"/>
	<path class="st22" d="M249.3,346c0-13.8,0-27.2,0-41c9.3,0,18.5,0,28,0c0,13.7,0,27.2,0,41C268.1,346,259,346,249.3,346z"/>
	<path class="st22" d="M249.3,387c0-11.8,0-23.3,0-35c9.3,0,18.5,0,28,0c0,11.7,0,23.3,0,35C268,387,258.6,387,249.3,387z"/>
</g>
</svg>
